<?xml version="1.0" encoding="UTF-8"?>
<svg width="525px" height="250px" viewBox="0 0 525 371" version="1.1" xmlns="http://www.w3.org/2000/svg" xmlns:xlink="http://www.w3.org/1999/xlink">
    <!-- Generator: Sketch 51 (57462) - http://www.bohemiancoding.com/sketch -->
    <title>Group</title>
    <desc>Created with Sketch.</desc>
    <defs>
        <radialGradient cx="50.4446635%" cy="49.983683%" fx="50.4446635%" fy="49.983683%" r="1076.90159%" gradientTransform="translate(0.504447,0.499837),scale(0.032963,1.000000),translate(-0.504447,-0.499837)" id="radialGradient-1">
            <stop stop-color="#333333" offset="0%"></stop>
            <stop stop-color="#000000" stop-opacity="0" offset="100%"></stop>
        </radialGradient>
        <filter x="-1.7%" y="-51.6%" width="103.4%" height="203.1%" filterUnits="objectBoundingBox" id="filter-2">
            <feGaussianBlur stdDeviation="1.67410714" in="SourceGraphic"></feGaussianBlur>
        </filter>
    </defs>
    <g id="404" stroke="none" stroke-width="1" fill="none" fill-rule="evenodd">
        <g id="web_404-page" transform="translate(-153.000000, -201.000000)" fill-rule="nonzero">
            <g id="Group" transform="translate(153.000000, 199.000000)">
                <path d="M7.14345739,274.07457 C4.67510937,274.07457 2.88625041,273.364913 1.77688051,271.945599 C0.689862602,270.587248 0.103403986,268.908399 0.112825661,267.181924 C0.103091804,264.877156 0.866085405,262.6331 2.28441724,260.795012 L85.345715,119.353035 C85.951238,118.153721 86.9671945,117.201009 88.2162096,116.661233 C90.0318466,116.198328 91.9086842,116.008552 93.7824731,116.098401 L128.411454,116.098401 C129.865792,116.251323 131.242607,116.818463 132.371905,117.729797 C133.674242,118.606428 134.442574,120.063939 134.418692,121.612517 L134.418692,231.103616 L149.752958,231.103616 C151.299985,231.052457 152.815372,231.540927 154.029579,232.482145 C155.177777,233.401165 155.751876,234.861264 155.751876,236.862442 L155.751876,268.185233 C155.723594,269.670789 155.105762,271.08703 154.029579,272.133209 C152.939512,273.317438 151.379765,273.980856 149.752958,273.952215 L134.427013,273.952215 L134.427013,296.620453 C134.427013,300.296531 132.380225,302.13457 128.28665,302.13457 L93.657669,302.13457 C89.9135455,302.13457 88.0387104,300.296531 88.0331636,296.620453 L88.0331636,274.07457 L7.14345739,274.07457 Z M89.9551469,231.478837 L89.9551469,188.385529 L64.1622968,231.478837 L89.9551469,231.478837 Z" id="Shape" fill="#2e2e2e"></path>
                <path d="M166.876082,209.308174 C166.833475,192.311667 171.429861,175.613472 180.188521,160.945459 C184.420768,153.872254 189.54477,147.349735 195.439584,141.531855 C201.323545,135.713653 207.961679,130.678502 215.183595,126.555645 C222.500984,122.386787 230.329344,119.14696 238.480362,116.914099 C255.476902,112.313585 273.427295,112.313585 290.423834,116.914099 C298.607173,119.137694 306.46698,122.377807 313.812125,126.555645 C321.042814,130.676718 327.689431,135.711939 333.581097,141.531855 C339.47093,147.34186 344.579346,153.865895 348.782238,160.945459 C353.04294,168.147825 356.350518,175.852917 358.625122,183.874721 C363.306557,200.539162 363.306557,218.134285 358.625122,234.798727 C356.353522,242.793101 353.045582,250.468883 348.782238,257.638262 C344.579603,264.680895 339.470661,271.16448 333.581097,276.929512 C327.675309,282.723468 321.040544,287.756064 313.837086,291.905721 C283.363615,309.364673 245.657065,309.364673 215.183595,291.905721 C200.744311,283.574079 188.697779,271.78643 180.171881,257.646419 C175.87456,250.493747 172.564693,242.813496 170.328996,234.806884 C168.006882,226.499556 166.845314,217.921734 166.876082,209.308174 Z M215.183595,209.177663 C215.129188,215.881468 216.409467,222.531279 218.952679,228.754407 C221.35562,234.643711 224.89227,240.024576 229.369662,244.603413 C238.65853,253.939808 251.39846,259.204699 264.701707,259.204699 C278.004953,259.204699 290.744884,253.939808 300.033751,244.603413 C309.319767,235.067482 314.452766,222.361033 314.344623,209.177663 C314.41179,195.938876 309.28858,183.180736 300.033751,173.539831 C295.549984,168.950392 290.17501,165.286715 284.22523,162.764465 C278.0436,160.112927 271.361569,158.76773 264.614344,158.816488 C257.872881,158.745779 251.193341,160.083274 245.020098,162.739994 C239.131141,165.287635 233.812768,168.949348 229.369662,173.51536 C224.878219,178.154797 221.341338,183.599714 218.952679,189.551977 C216.417181,195.794388 215.13731,202.458696 215.183595,209.177663 Z" id="Shape" fill="#2e2e2e"></path>
                <path d="M375.806489,274.07457 C373.332594,274.07457 371.543735,273.364913 370.439912,271.945599 C369.352894,270.587248 368.766435,268.908399 368.775857,267.181924 C368.766123,264.877156 369.529117,262.6331 370.947449,260.795012 L454.008746,119.353035 C454.616343,118.152321 455.635436,117.19943 456.887561,116.661233 C458.70024,116.197651 460.574443,116.007858 462.445504,116.098401 L497.074486,116.098401 C498.528823,116.251323 499.905638,116.818463 501.034936,117.729797 C502.33383,118.609403 503.101137,120.064972 503.081724,121.612517 L503.081724,231.103616 L518.415989,231.103616 C519.963016,231.052457 521.478403,231.540927 522.69261,232.482145 C523.840808,233.401165 524.414907,234.861264 524.414907,236.862442 L524.414907,268.185233 C524.386625,269.670789 523.768793,271.08703 522.69261,272.133209 C521.602544,273.317438 520.042796,273.980856 518.415989,273.952215 L503.090044,273.952215 L503.090044,296.620453 C503.090044,300.296531 501.043257,302.13457 496.949682,302.13457 L462.3207,302.13457 C458.576577,302.13457 456.701742,300.296531 456.696195,296.620453 L456.696195,274.07457 L375.806489,274.07457 Z M458.618178,231.478837 L458.618178,188.385529 L432.825328,231.478837 L458.618178,231.478837 Z" id="Shape" fill="#2e2e2e"></path>
                <polygon id="Shape" fill="#F7C183" points="210.334329 353.521709 244.455774 329.687023 185.073976 300.786855 186.338658 341.840919"></polygon>
                <polygon id="Shape" fill="#E6632F" points="185.073976 300.786855 244.455774 329.687023 379.618629 63.4188314 320.228511 34.5186628"></polygon>
                <polygon id="Shape" fill="#FFFFFF" opacity="0.4" style="mix-blend-mode: overlay;" points="199.13524 307.630558 230.39451 322.84332 365.549045 56.5751279 334.298095 41.3623663"></polygon>
                <rect id="Rectangle-path" fill="#CCCCCC" transform="translate(352.143854, 44.592281) rotate(-153.600000) translate(-352.143854, -44.592281) " x="318.995882" y="39.7184871" width="66.2959452" height="9.74758721"></rect>
                <path d="M327.476061,14.0359702 L393.772006,14.0359702 L393.772006,37.0631155 C393.772006,39.6039208 391.671042,41.6636504 389.079371,41.6636504 L332.168695,41.6636504 C329.577025,41.6636504 327.476061,39.6039208 327.476061,37.0631155 L327.476061,14.0359702 Z" id="Shape" fill="#C1272D" transform="translate(360.624033, 27.849810) rotate(-153.600000) translate(-360.624033, -27.849810) "></path>
                <path d="M325.674762,21.5712656 L391.970707,21.5712656 L391.970707,36.6453587 C391.970707,39.1861639 389.869743,41.2458936 387.278072,41.2458936 L330.359076,41.2458936 C327.767405,41.2458936 325.666441,39.1861639 325.666441,36.6453587 L325.666441,21.5712656 L325.674762,21.5712656 Z" id="Shape" fill="#FFFFFF" opacity="0.3" style="mix-blend-mode: overlay;" transform="translate(358.818574, 31.408580) rotate(-153.600000) translate(-358.818574, -31.408580) "></path>
                <path d="M343.212174,13.8710857 L378.107404,13.8710857 L378.107404,37.0695276 C378.107404,39.6103329 376.00644,41.6700625 373.414769,41.6700625 L347.904808,41.6700625 C345.313138,41.6700625 343.212174,39.6103329 343.212174,37.0695276 L343.212174,13.8710857 Z" id="Shape" fill="#FFFFFF" opacity="0.3" style="mix-blend-mode: overlay;" transform="translate(360.659789, 27.770574) rotate(-153.600000) translate(-360.659789, -27.770574) "></path>
                <path d="M371.082027,51.8359244 L334.830593,34.1923837 C330.749467,32.3512466 325.91774,34.0856799 324.014236,38.0751047 L316.525989,52.8718605 L312.573859,60.6862442 L189.517003,302.948453 L240.004427,327.541738 L363.019682,85.2795291 L366.980132,77.4651453 L374.468379,62.6602326 C375.484522,60.7847981 375.698587,58.5902897 375.063429,56.560038 C374.428271,54.5297863 372.995986,52.8303148 371.082027,51.8359244 Z" id="Shape" fill="#FFFFFF" opacity="0.3" style="mix-blend-mode: overlay;"></path>
                <path d="M182.344927,348.121791 L183.04383,353.081233 L188.651694,357.575727 L189.483722,364.998576 L174.507228,364.305233 C173.654888,364.313692 172.875106,363.836157 172.508984,363.081515 C172.142862,362.326874 172.25704,361.432482 172.801572,360.789576 L182.344927,348.121791 Z" id="Shape" fill="#5A150E"></path>
                <polygon id="Shape" fill="#5A150E" points="186.621548 350.887006 186.621548 350.887006 194.168036 351.808744 198.660984 357.379959 203.711391 358.146715 210.334329 353.521709 186.338658 341.840919"></polygon>
                <polygon id="Shape" fill="#FFFFFF" opacity="0.3" style="mix-blend-mode: overlay;" points="204.784706 350.82175 230.719001 322.998302 198.810749 307.475576 191.888281 344.549035"></polygon>
                <polygon id="Shape" fill="#FFFFFF" opacity="0.3" style="mix-blend-mode: overlay;" points="208.53715 352.648913 240.004427 327.517267 189.525323 302.95661 188.135837 342.721872"></polygon>
                <polygon id="Shape" fill="#5A150E" transform="translate(198.410517, 364.484927) rotate(-4.000000) translate(-198.410517, -364.484927) " points="201.903668 361.984927 203.410517 366.984927 193.410517 362.297427"></polygon>
                <polygon id="Shape" fill="#5A150E" transform="translate(182.143985, 342.581001) rotate(-27.000000) translate(-182.143985, -342.581001) " points="184.143985 341.412063 181.460002 345.581001 180.143985 339.581001"></polygon>
                <polygon id="Shape" fill="#5A150E" transform="translate(210.415416, 360.708309) rotate(-75.000000) translate(-210.415416, -360.708309) " points="208.415416 357.708309 212.415416 359.55572 209.731433 363.708309"></polygon>
                <polygon id="Shape" fill="#5A150E" transform="translate(193.500000, 369.000000) rotate(12.000000) translate(-193.500000, -369.000000) " points="191 365 196 368.317895 193.925697 373"></polygon>
                <path d="M216.023942,225.866837 C215.461744,222.712937 215.18333,219.516704 215.191915,216.315017 C215.154773,209.612738 216.434432,202.96615 218.960999,196.738273 C221.349185,190.782814 224.882855,185.332953 229.369662,180.685343 C233.815475,176.122415 239.133181,172.46116 245.020098,169.909977 C251.201011,167.248069 257.888632,165.905099 264.639305,165.970157 C271.38557,165.922481 278.066809,167.26474 284.250191,169.909977 C290.198331,172.435115 295.572755,176.098417 300.058712,180.685343 C309.315527,190.328295 314.438888,203.08973 314.369584,216.331331 C314.382526,219.533193 314.10408,222.729803 313.537556,225.883151 L361.728585,225.883151 C362.028115,222.7835 362.180653,219.640345 362.1862,216.453686 C362.208661,207.858281 361.027243,199.300551 358.675044,191.020233 C356.40046,183.001009 353.092862,175.298613 348.83216,168.099128 C344.627291,161.018388 339.519092,154.49189 333.631019,148.677366 C327.744509,142.864296 321.106716,137.832145 313.887008,133.709314 C306.540455,129.532235 298.681112,126.289572 290.498717,124.05961 C273.500664,119.470056 255.553298,119.470056 238.555245,124.05961 C230.405312,126.299209 222.577459,129.541567 215.258477,133.709314 C208.038769,137.832145 201.400976,142.864296 195.514466,148.677366 C189.61557,154.498809 184.48616,161.023836 180.246763,168.099128 C171.486524,182.763517 166.889964,199.459528 166.934324,216.453686 C166.934324,219.645783 167.086863,222.788938 167.391939,225.883151 L216.023942,225.866837 Z" id="Shape" fill="#2e2e2e" opacity="0.112310268" style="mix-blend-mode: multiply;"></path>
                <path d="M216.023942,218.729483 C215.460803,215.575702 215.182383,212.379388 215.191915,209.177663 C215.152067,202.475143 216.431822,195.828052 218.960999,189.600919 C221.349658,183.648656 224.886539,178.203739 229.377982,173.564302 C233.81409,168.981574 239.129873,165.303065 245.020098,162.739994 C251.199141,160.07146 257.887637,158.725532 264.639305,158.792017 C271.38653,158.743259 278.068561,160.088456 284.250191,162.739994 C290.199971,165.262244 295.574945,168.925921 300.058712,173.51536 C309.310404,183.166219 314.424952,195.933802 314.344623,209.177663 C314.358363,212.379556 314.079911,215.576236 313.512595,218.729483 L361.703624,218.729483 C362.003154,215.640707 362.155692,212.500271 362.161239,209.308174 C362.184962,200.712688 361.003522,192.154789 358.650083,183.874721 C356.375479,175.852917 353.067901,168.147825 348.807199,160.945459 C344.596564,153.864494 339.479709,147.340394 333.581097,141.531855 C327.697136,135.713653 321.059002,130.678502 313.837086,126.555645 C306.49194,122.377807 298.632134,119.137694 290.448795,116.914099 C273.452255,112.313585 255.501863,112.313585 238.505323,116.914099 C230.354305,119.14696 222.525944,122.386787 215.208555,126.555645 C207.977867,130.676718 201.33125,135.711939 195.439584,141.531855 C189.538921,147.348771 184.409295,153.871333 180.171881,160.945459 C171.41322,175.613472 166.816835,192.311667 166.859442,209.308174 C166.859442,212.500271 167.01198,215.640707 167.317057,218.729483 L216.023942,218.729483 Z" id="Shape" fill="#2e2e2e"></path>
                <ellipse id="Oval" fill="url(#radialGradient-1)" opacity="0.168995536" style="mix-blend-mode: multiply;" filter="url(#filter-2)" cx="201.448276" cy="363.130456" rx="147.726469" ry="4.8695436"></ellipse>
            </g>
        </g>
    </g>
</svg>