<svg version="1.2" xmlns="http://www.w3.org/2000/svg" viewBox="0 0 1400 1000" width="400" height="286">
	<title>9264826</title>
	<style>
		.s0 { fill: #dfdfeb } 
		.s1 { fill: #d3ddf7 } 
		.s2 { fill: #000000 } 
		.s3 { fill: none;stroke: #424242;stroke-miterlimit:10;stroke-width: 2 } 
		.s4 { fill: #9ec68a } 
		.s5 { fill: #7e9e6e } 
		.s6 { fill: none;stroke: #000000;stroke-linecap: round;stroke-miterlimit:10;stroke-width: 2 } 
		.s7 { fill: #333969 } 
		.s8 { fill: #7584f1 } 
		.s9 { fill: none;stroke: #000000;stroke-linejoin: round;stroke-width: 2 } 
		.s10 { fill: none;stroke: #000000;stroke-linecap: round;stroke-linejoin: round;stroke-width: 2 } 
		.s11 { fill: #db9c7f } 
		.s12 { fill: none;stroke: #ffffff;stroke-miterlimit:10;stroke-width: 2 } 
		.s13 { fill: #ffffff } 
	</style>
	<g id="OBJECTS">
		<path id="&lt;Path&gt;" class="s0" d="m140.9 889.3c0 18 95.1 32.7 212.5 32.7 117.3 0 212.5-14.7 212.5-32.7 0-18.1-95.2-32.7-212.5-32.7-117.4 0-212.5 14.6-212.5 32.7z"/>
		<path id="&lt;Path&gt;" class="s0" d="m316.8 895.8c0 18.1 171.9 32.7 383.9 32.7 212 0 383.9-14.6 383.9-32.7 0-18-171.9-32.7-383.9-32.7-212 0-383.9 14.7-383.9 32.7z"/>
		<g id="&lt;Group&gt;">
			<path id="&lt;Path&gt;" class="s1" d="m596.3 89.9c-39.7 1.1-72.5 32.8-74.8 72.4-1.3 23.3 7.7 44.5 22.9 59.4 2.2 2.2 3.3 5.4 2.8 8.5l-5.7 33.7 35-20.4c2-1.2 4.4-1.6 6.7-1.2 8.5 1.8 17.6 2.1 27 0.7 34.7-5.3 61.7-34 64.9-68.9 4.2-46.5-32.9-85.5-78.8-84.2z"/>
			<g id="&lt;Group&gt;">
				<path id="&lt;Compound Path&gt;" class="s2" d="m594.9 193.5l-0.2-18.4q4-1 7.3-2.6 3.4-1.5 5.9-3.6 2.5-2.1 4.2-4.6 1.6-2.6 2.5-5.5 0.9-3 0.9-6.2 0-4.7-2.3-8.9-2.3-4.1-6.5-6.7-4.3-2.5-10.2-2.5-6.3 0-11.7 3.5-5.4 3.4-8.2 11.8l-2-1.3q2.5-7.9 8.4-12.2 5.9-4.2 13.4-4.2 6.5 0 11.3 2.7 4.8 2.7 7.6 7.3 2.7 4.7 2.7 10.5 0 4.3-1.5 8.1-1.4 3.8-4.1 7-2.7 3.2-6.5 5.5-3.8 2.3-8.6 3.5l-0.2 16.8zm-1.3 13.7q0-1.4 0.7-2.3 0.8-0.9 2.1-0.9 1.5 0 2.2 0.8 0.6 0.9 0.6 2.4 0 1.3-0.7 2.3-0.7 1-2.1 1-1.4 0-2.1-0.9-0.7-0.8-0.7-2.4z"/>
			</g>
		</g>
		<g id="&lt;Group&gt;">
			<path id="&lt;Path&gt;" class="s2" d="m373.4 843.3l3.4 25.7c0 0 64.1 27.3 58.2 27.7-6 0.4-98-5.5-98-5.5l5.4-46.8z"/>
			<path id="&lt;Path&gt;" class="s3" d="m355.6 423c0 0-5.1 49.1-8.9 51.6-3.9 2.6-9 3.9-9 3.9l8.3-56.2z"/>
			<g id="&lt;Group&gt;">
				<path id="&lt;Path&gt;" class="s2" d="m254.5 389.2c0 0-26 58.6-18.5 91.3l143.9-22-3-60.9z"/>
				<path id="&lt;Path&gt;" class="s2" d="m379.9 458.5c0 0 0.8 140.7 1.8 189.7 1 48.9 9.6 200.3 9.6 200.3 0 0-26.9 14.8-54.8 2.8-2.3-1-26.4-394.1-26.4-394.1z"/>
				<path id="&lt;Path&gt;" class="s2" d="m238.4 463.1l-60.7 386.6c0 0 26.5 24.9 60 2.3l61.8-315.9 29.9-20.1 4.5-57.6z"/>
				<path id="&lt;Path&gt;" class="s2" d="m222.5 840.2l5.5 22.2c0 0 40.4 48.6 34.5 48.6-6 0-72.3-30.1-72.3-30.1l8.5-46.3z"/>
				<path id="&lt;Path&gt;" class="s3" d="m260.6 412.9c0 0-38.3 160.9-66.7 444.9"/>
				<path id="&lt;Path&gt;" class="s3" d="m286.8 430.2c0 0-13.4 33.5-36.2 34.1"/>
				<path id="&lt;Path&gt;" class="s3" d="m343.4 853.6l-19.5-332.8 19.1-20.1"/>
				<path id="&lt;Path&gt;" class="s4" d="m343.2 220.8c9.9-2 17.2-3.5 17.2-3.5l62.1 33.9q0.2 0.1 0.3 0.2c20.4 11.2 29.4 30.3 28.8 57l3 38.6-33.6-27.3-28.5 54.9-18 64.7c-96.4 35.1-133.9-27.8-133.9-27.8l32-69.2 12.9-63.9c6.1-32.7 25-50.9 57.7-57.6z"/>
			</g>
			<g id="&lt;Group&gt;">
				<path id="&lt;Path&gt;" class="s5" d="m864.5 330c0 0-9.8 40.7-64.8 90.4 0 0-5.3-7.4 6.5-36.1 11.7-28.6 56-64.4 58.3-54.3z"/>
				<path id="&lt;Path&gt;" class="s6" d="m864.5 330c0 0-48.7 30.3-64.8 90.4 0 0-3.7 20.7 2.3 39.3"/>
				<path id="&lt;Path&gt;" class="s5" d="m737.4 355.3c0 0 13.7-9.1-7.2-35.2-19.8-24.8-41-47.3-84.6-57.8 0 0 9.5 60.6 37.3 76.7 27.8 16.1 54.5 16.3 54.5 16.3z"/>
				<path id="&lt;Path&gt;" class="s5" d="m627.5 392.3c0 0 45.4 13 125.1-8 0 0-4.3-8.4-39-13.3-34.7-5-94.7 14.1-86.1 21.3z"/>
				<path id="&lt;Path&gt;" class="s6" d="m627.5 392.3c0 0 57.1-25.6 125.1-8 0 0 7 2.2 13.6 12.3"/>
				<path id="&lt;Path&gt;" class="s5" d="m663 436.5c0 0 47.2 35.5 126.9 14.5 0 0-13.5-28.4-48.1-33.4-34.7-4.9-87.5 11.6-78.8 18.9z"/>
				<path id="&lt;Path&gt;" class="s6" d="m663 436.5c0 0 54.7-21.4 126.9 14.5 0 0 8.4 4.4 15 14.5"/>
				<path id="&lt;Path&gt;" class="s2" d="m839.8 289.3c0 0 14.6-0.8-22.9 29.8-35.5 28.8-31.3 29.3-31.3 29.3 0 0 15.7-45.5 54.2-59.1z"/>
				<path id="&lt;Path&gt;" class="s5" d="m760.3 362.5c0 0 10.5 4.9 31.3-11.8 20.7-16.7 30.6-56.3 48.2-61.4 0 0-44.1 11.2-79.5 73.2z"/>
				<path id="&lt;Path&gt;" class="s6" d="m822.6 504.7c-19.2-45.9-46.6-98.4-85.2-149.4 0 0-9.4-14.1-42.7-51.1-33.4-37.1-49.1-41.9-49.1-41.9"/>
				<path id="&lt;Path&gt;" class="s6" d="m834.5 291.1c0 0-42.2 15.3-74.2 71.4-7.8 13.6-0.3 25.2 5.9 34.1"/>
			</g>
			<g id="&lt;Group&gt;">
				<path id="&lt;Path&gt;" class="s5" d="m1262.2 819.7c0 0-40.9 12.3-109.3-32 0 0 4.5-11.9 35.4-13.8 30.9-1.9 82.1 36.2 73.9 45.8z"/>
				<path id="&lt;Path&gt;" class="s6" d="m1260.7 816.7c0 0-45-35.4-107-30.2 0 0-20.7 3.6-36.1 15.5"/>
				<path id="&lt;Path&gt;" class="s5" d="m1173.1 728.4c0 0 13.1 9.8 30.6-18.7 16.6-27.1 30.5-54.7 25.5-99.3 0 0-53.7 29.6-59.4 61.2-5.6 31.6 3.3 56.8 3.3 56.8z"/>
				<path id="&lt;Path&gt;" class="s2" d="m1278.7 779.3c0 0 8.6 11.9-37.4-3.2-43.4-14.2-41.5-10.4-41.5-10.4 0 0 46.7-11.4 78.9 13.6z"/>
				<path id="&lt;Path&gt;" class="s5" d="m1174.2 752c0 0 1.6 11.6 26.9 20 25.2 8.3 63.8-4.8 77.6 7.3 0 0-33.2-31-104.5-27.3z"/>
				<path id="&lt;Path&gt;" class="s6" d="m1061.6 859.4c36.6-33.7 76.6-77.4 111.5-131 0 0 10-13.6 33.5-57.6 23.5-43.9 22.6-60.4 22.6-60.4"/>
				<path id="&lt;Path&gt;" class="s6" d="m1274.4 775.9c0 0-35.7-27.3-100.2-23.9-15.7 0.8-22.7 8.4-34.5 23.1"/>
			</g>
			<path id="&lt;Path&gt;" class="s7" d="m836.2 412c12.5 0 24.7-4.4 34.3-12.5l26.7-22.3c9.6-8 21-12.3 32.7-12.3h132.6c12 0 21.8 9.8 21.8 21.8v25.3 454.6c0 20.7-16.9 37.6-37.6 37.6h-660.8c-16.2 0-29.2-13.1-29.2-29.3v-433.7c0-16.2 13-29.2 29.2-29.2z"/>
			<path id="&lt;Path&gt;" class="s8" d="m356.7 877.4c0 0 44.9-84.4 49.4-94.1l122.9-250.3c3.1-6.7 9.8-10.9 17.1-10.9h456.7c16.6 0 40.7-8.8 53.4-19.4l18.4-15.4c9.6-8 21.1-12.3 32.8-12.3h126.1c13.4 0 22.6 13.7 17.4 26.1l-152.5 368.9c-8.6 20.7-28.7 34.2-51.1 34.2h-682.4c-4.4 0-8.5-3.8-8.5-8.3z"/>
			<path id="&lt;Path&gt;" class="s9" d="m542.4 545.9l-180.3 350.5"/>
			<path id="&lt;Path&gt;" class="s9" d="m616.7 606.3h155.4c4.2 0 8.2-2.2 10.4-5.7 5.3-8.1-0.6-18.7-10.4-18.7h-155.4c-4.2 0-8.1 2.1-10.4 5.6-5.3 8.1 0.7 18.8 10.4 18.8z"/>
			<g id="&lt;Group&gt;">
				<g id="&lt;Group&gt;">
					<path id="&lt;Path&gt;" class="s10" d="m907.3 726.8l-120.9 72"/>
					<path id="&lt;Path&gt;" class="s10" d="m808.4 723.3l76 76"/>
				</g>
				<path id="&lt;Path&gt;" class="s10" d="m809.1 704c-44.5 21.9-62.9 65.8-41.2 98 21.7 32.2 75.3 40.4 119.7 18.5 44.5-22 62.9-65.9 41.2-98.1-21.7-32.1-75.3-40.4-119.7-18.4z"/>
			</g>
			<path id="&lt;Path&gt;" class="s4" d="m387.5 384.3l22.5 25.2c0 0-21.1 24.8-42.5 10.1l-3.4-4.9z"/>
			<path id="&lt;Path&gt;" class="s6" d="m335.4 234c0 0 30.7 8.1 6.6 96.9"/>
			<path id="&lt;Path&gt;" class="s6" d="m389.4 386.9c-16.6-18.6-36.9-42-48.8-58.2"/>
			<path id="&lt;Path&gt;" class="s6" d="m367.5 419.6c-15.9-16.3-37.4-39.6-46.8-48.2-14.6-13.4-29.8-35-24.9-62.7l-0.6-22.3"/>
			<path id="&lt;Path&gt;" class="s4" d="m463.1 407.7c-19.6-10.6-28.6-23.7-36.2-33.5-18-23.2-24.4-26-19.1-53l0.3-28.3 39.1 42.4c14.9 19.8 49.4 55.4 62.1 69.4 0 0-14.9 19.9-46.2 3z"/>
			<g id="&lt;Group&gt;">
				<path id="&lt;Path&gt;" class="s11" d="m383.3 400.5c1.8-0.5 3.7-0.6 5.5-0.4 6.8 0.7 24.7 2.6 26.8 2.6 2.5 0 4.5-3.7 9.9 9.8 5.3 13.6 4.4 14.8 4.3 16.6 0 1.8-3.9 27.7-8.1 23.8-4.1-3.9-3.6-6.1-3.6-6.1 0 0-2.2 10.5-3.4 10.1-1.2-0.4-5.6-0.4-4.9-7.9 0 0-2.4 7.3-4.9 5.5-2.4-1.8-1.9-9.7-1.9-9.7 0 0-2.6 5.9-5.6 2-3.1-3.9-0.8-13-0.8-13l-2.5-6.8-5.5-2.3c0 0-18.4 4.8-21.6-8-2.5-9.8 10.3-14.5 16.3-16.2z"/>
				<g id="&lt;Group&gt;">
					<path id="&lt;Path&gt;" class="s6" d="m420.4 417.1l3.4 14.5-5.7 15.2"/>
					<path id="&lt;Path&gt;" class="s6" d="m411.5 416.6l4.5 14.9-6.2 17.5"/>
					<path id="&lt;Path&gt;" class="s6" d="m403.7 418.2l2.6 14.4-3 10.7"/>
				</g>
			</g>
			<path id="&lt;Path&gt;" class="s6" d="m388.6 142c-6.5 6.1-6.6 13.6-6.6 13.6 0 0-2.2-2.8-5-3.7"/>
			<g id="&lt;Group&gt;">
				<g id="&lt;Group&gt;">
					<path id="&lt;Path&gt;" class="s11" d="m482 396.4c6.3-1.5 12.8-0.5 18.5 2.4 7.5 3.8 19.2 9.8 20.7 10.2 2.3 0.7 3.8-0.5 4.1 13.2 0.1 5.5 0.1 9.2-0.4 10.8-0.5 1.6-11.5 18.1-15.1 15.7q-0.1 0-0.3-0.1c-0.9 1.2-2.1 2.7-3.3 3.7-0.9 0.8-5.9 0.7-3.4-5.9 0 0-3.4 7.6-6.1 6.6-3.6-1.3-3-4.7-1.7-7.6-1.6 2.2-3.7 4-5.1 2.1-2.8-3.7 3.6-17.1 3.6-17.1l0.7-8.1-4.9-4.4c0 0-17.5 0.5-17-12 0.2-5.7 4.8-8.3 9.7-9.5z"/>
					<g id="&lt;Group&gt;">
						<path id="&lt;Path&gt;" class="s6" d="m520.4 417.2l-0.2 14.8-10.8 15.6"/>
						<path id="&lt;Path&gt;" class="s6" d="m512.8 417.3l-0.9 15.2-9.1 13.9"/>
						<path id="&lt;Path&gt;" class="s6" d="m505 417.7l-1.1 12.8-7.7 12.9"/>
					</g>
				</g>
				<path id="&lt;Path&gt;" class="s11" d="m482.9 414.3c0 0 1.7 13.2-2.5 16.1-4.3 2.9-11.1-24.4-6.4-24.7 6.9-0.6 8.9 8.6 8.9 8.6z"/>
				<path id="&lt;Path&gt;" class="s6" d="m488.7 412.4c0 0-4.2 0.7-5.5 5.7"/>
			</g>
			<path id="&lt;Path&gt;" class="s6" d="m406.5 348.5l20.6-26.8c18.8-25 6.2-51.3 6.2-51.3"/>
			<path id="&lt;Path&gt;" class="s6" d="m454.6 347c0 0-12.1-16.8-14.9-9.3"/>
			<g id="&lt;Group&gt;">
				<path id="&lt;Path&gt;" class="s12" d="m459.3 207l-3.5-0.7"/>
				<path id="&lt;Path&gt;" class="s13" d="m386.3 203.8l-25.9 13.5c0 0-0.7 30.7 28.4 54.1l13-12.7 13.2 13.1c0 0 5-3.9 6.5-21.7l-2.4-21.7z"/>
				<path id="&lt;Path&gt;" class="s10" d="m419.1 228.4l-32.8-24.6-25.9 13.5"/>
				<path id="&lt;Path&gt;" class="s11" d="m378.8 208.4c0 0 8 46.8 19.8 50.1 11.9 3.3 19.3-20.1 19.3-20.1l-23-63.8z"/>
				<path id="&lt;Path&gt;" class="s2" d="m422.3 244.1l0.1 5.8c0.1 0-0.2 1.8-6 2.4-25.4-0.7-27.4-29.2-29.4-51.9 0 0 37.6 39.1 35.3 43.7z"/>
				<path id="&lt;Path&gt;" class="s11" d="m457.7 180.5c0 0 6.5 59.3-28.3 68.9-34.7 9.6-43.1-47.1-41.9-66.7 1.2-19.6 11-29.3 35.4-30.2 36.1-1.3 34.8 28 34.8 28z"/>
				<path id="&lt;Path&gt;" class="s2" d="m405.6 164.4c0 0-0.6 12.4-8.9 14.9l-5.9 18.4c0 0-5-8.2-10.5-11.1 0 0-6-24.2 1.6-33.8 7.6-9.6 18.2-14.5 43.8-12.4 19.5 1.7 30.9 15.5 34.6 22.5 1.2 2.3 4.1 8.7-2.7 14.9 0 0 0.1-4.7-3.9-10.2 0 0-9.4 19.1-48.1-3.2z"/>
				<path id="&lt;Path&gt;" class="s11" d="m372.3 200.8c2.1 7.8 8.3 13 13.7 11.6 5.5-1.5 8.2-9 6-16.8-2.1-7.9-8.3-13-13.7-11.6-5.5 1.5-8.2 9-6 16.8z"/>
				<path id="&lt;Path&gt;" class="s2" d="m422.4 203.4c-0.1 2 0.9 3.7 2.2 3.8 1.3 0.1 2.4-1.5 2.5-3.5 0.1-2.1-0.9-3.7-2.2-3.8-1.2-0.1-2.4 1.5-2.5 3.5z"/>
				<path id="&lt;Path&gt;" class="s2" d="m449.3 205.1c-0.2 1.9 0.5 3.5 1.7 3.6 1.2 0.1 2.2-1.3 2.4-3.2 0.2-1.9-0.5-3.5-1.7-3.6-1.1-0.1-2.2 1.3-2.4 3.2z"/>
				<path id="&lt;Path&gt;" class="s6" d="m414.8 187.5c0 0 9.2 1.9 9.8-6.8"/>
				<path id="&lt;Path&gt;" class="s6" d="m446 186.7c0 0 2.4 8.2 9.3 3.5"/>
				<path id="&lt;Path&gt;" class="s2" d="m420.8 235.9c0 0-3-12.4-12.4-5.3z"/>
				<path id="&lt;Path&gt;" class="s10" d="m377.8 194c0 0 6.1-5.3 9.4 4.4 0 0-3.6 3.8-1.3 6.7 0 0-3.5 0.8-5.3-2.3"/>
				<path id="&lt;Path&gt;" class="s10" d="m380.4 197.7c0 0 0.3-2.2 2.7-4.6"/>
				<path id="&lt;Path&gt;" class="s12" d="m444 204.8c0 5.7 3.5 10.3 7.8 10.3 4.4 0 7.9-4.6 7.9-10.3 0-5.8-3.5-10.4-7.9-10.4-4.3 0-7.8 4.6-7.8 10.4z"/>
				<path id="&lt;Path&gt;" class="s12" d="m414.5 203.4c0 6 4.5 10.9 10 10.9 5.6 0 10-4.9 10-10.9 0-6.1-4.4-11-10-11-5.5 0-10 4.9-10 11z"/>
				<path id="&lt;Path&gt;" class="s12" d="m444.3 207.8c0 0-2.4-10.4-10.3-0.8"/>
				<path id="&lt;Path&gt;" class="s12" d="m414.7 199.2l-23.2-5.2"/>
				<path id="&lt;Path&gt;" class="s6" d="m445.3 212.3c1.1 1.5 1.4 3.2 0.8 5.1-0.6 1.9-2.5 3-4.4 3-0.9 0-1.7-0.3-2.6-0.5-0.4-0.2-1.1-0.5-1.5-0.4-1.9 0.9-4.1-0.8-3.5-2.1"/>
			</g>
		</g>
	</g>
</svg>